<?xml version="1.0" encoding="utf-8"?>
<!-- Generator: Adobe Illustrator 16.0.0, SVG Export Plug-In . SVG Version: 6.00 Build 0)  -->
<!DOCTYPE svg [
	<!ENTITY ns_flows "http://ns.adobe.com/Flows/1.0/">
	<!ENTITY ns_extend "http://ns.adobe.com/Extensibility/1.0/">
	<!ENTITY ns_ai "http://ns.adobe.com/AdobeIllustrator/10.0/">
	<!ENTITY ns_graphs "http://ns.adobe.com/Graphs/1.0/">
]>
<svg version="1.2" baseProfile="tiny" id="Layer_1" xmlns:x="&ns_extend;" xmlns:i="&ns_ai;" xmlns:graph="&ns_graphs;"
	 xmlns="http://www.w3.org/2000/svg" xmlns:xlink="http://www.w3.org/1999/xlink" xmlns:a="http://ns.adobe.com/AdobeSVGViewerExtensions/3.0/"
	 x="0px" y="0px" width="577.93px" height="590.57px" viewBox="0 0 577.93 590.57" xml:space="preserve">
<g>
	<path fill="#EEE1DB" d="M288.847,9.276C171.65,7.599,96.497,98.238,96.497,207.977c0,109.739,86.118,198.7,192.35,198.7
		c106.232,0,192.351-88.961,192.351-198.7C481.197,98.238,410.243,10.941,288.847,9.276z M288.755,368.072
		c-67.679,0-122.542-71.473-122.542-159.64s54.864-159.64,122.542-159.64c67.678,0,122.542,71.474,122.542,159.64
		S356.434,368.072,288.755,368.072z"/>
	<path fill="#962D3D" d="M436.425,166.679c0,0-4.991-8.319-3.494-25.957c0,0-8.152-10.816-10.482-15.308
		c0,0-9.484-0.666-13.312-0.832c0,0,3.766-1.999,0-2.526c0,0-4.294-0.316-6.562-1.107c0,0,12.397,0.264,18.411-2.269
		c0,0-2.7-9.691-1.486-24.191c0,0-17.119-11.167-21.619-17.917c0,0,16.917,3.583,27.917,11.25c0,0,4.5,2.75,4.583,7.75
		c0,0-0.75,15.833,3.5,20.75c0,0,1.167,3.833,7.25,3.667c0,0,4.749-0.333,5.833,2.5c0,0,6.583-0.25,6,1.417l-5.083,0.083
		c0,0-1.083-0.667-1.75-0.5l-8,2.583c0,0-2.251,0.417-0.417,3.167l3.917,5.875c0,0,3.312,4.265-0.971,14.17
		C440.66,149.284,436.636,161.452,436.425,166.679z"/>
	<path fill="#962D3D" d="M329.192,160.968c-1.421-5.42-10.933-10.189-10.933-10.189c-9.585-5.228-27.533-9.236-27.533-9.236
		L140.629,491.89h34.325l36.677-88.151h141l26.5,88.151h56.5L329.192,160.968z M223.785,376.239l70.44-168.414l49.335,168.414
		H223.785z"/>
</g>
<g>
	<path fill="#968575" d="M249.983,576.667c-6.963,0-12.922-2.477-17.872-7.427c-4.919-4.921-7.38-10.862-7.38-17.825
		c0-6.962,2.461-12.903,7.38-17.824c4.95-4.95,10.908-7.426,17.872-7.426c6.962,0,12.903,2.476,17.823,7.426
		c4.919,4.921,7.38,10.862,7.38,17.824c0,6.963-2.461,12.904-7.38,17.825C262.886,574.19,256.945,576.667,249.983,576.667z
		 M260.426,561.905c2.908-2.908,4.364-6.405,4.364-10.49c0-4.084-1.456-7.58-4.364-10.489c-2.878-2.878-6.359-4.317-10.443-4.317
		c-4.087,0-7.583,1.439-10.491,4.317c-2.879,2.909-4.317,6.405-4.317,10.489c0,4.085,1.438,7.582,4.317,10.49
		c2.908,2.878,6.404,4.316,10.491,4.316C254.066,566.221,257.548,564.783,260.426,561.905z"/>
	<path fill="#962D3D" d="M189.994,576.667c-6.963,0-12.921-2.477-17.872-7.427c-4.919-4.921-7.38-10.862-7.38-17.825
		c0-6.962,2.461-12.903,7.38-17.824c4.95-4.95,10.908-7.426,17.872-7.426c6.962,0,12.903,2.476,17.823,7.426
		c4.919,4.921,7.38,10.862,7.38,17.824c0,6.963-2.461,12.904-7.38,17.825C202.896,574.19,196.956,576.667,189.994,576.667z
		 M205.357,566.847c4.279-4.277,6.419-9.423,6.419-15.433c0-6.009-2.141-11.152-6.419-15.432c-4.233-4.233-9.355-6.352-15.363-6.352
		c-6.012,0-11.155,2.118-15.433,6.352c-4.235,4.279-6.352,9.423-6.352,15.432c0,6.01,2.116,11.155,6.352,15.433
		c4.278,4.233,9.421,6.351,15.433,6.351C196.001,573.198,201.124,571.081,205.357,566.847z"/>
	<path fill="#962D3D" d="M73.389,576.667c-6.963,0-12.921-2.477-17.871-7.427c-4.919-4.921-7.38-10.862-7.38-17.825
		c0-6.962,2.461-12.903,7.38-17.824c4.95-4.95,10.908-7.426,17.871-7.426c6.962,0,12.903,2.476,17.824,7.426
		c4.919,4.921,7.38,10.862,7.38,17.824c0,6.963-2.461,12.904-7.38,17.825C86.292,574.19,80.352,576.667,73.389,576.667z
		 M88.753,566.847c4.278-4.277,6.419-9.423,6.419-15.433c0-6.009-2.141-11.152-6.419-15.432c-4.233-4.233-9.355-6.352-15.364-6.352
		c-6.012,0-11.154,2.118-15.433,6.352c-4.235,4.279-6.352,9.423-6.352,15.432c0,6.01,2.116,11.155,6.352,15.433
		c4.279,4.233,9.421,6.351,15.433,6.351C79.397,573.198,84.52,571.081,88.753,566.847z"/>
	<path fill="#968575" d="M329.648,533.054c4.782,4.118,7.666,9.281,8.647,15.489c0.222,1.362,0.332,3.658,0.332,6.889v18.961
		h-10.595v-18.865c0-2.534-0.143-4.48-0.428-5.845c-0.697-3.482-2.424-6.367-5.178-8.646c-2.789-2.312-5.986-3.468-9.6-3.468
		c-3.643,0-6.857,1.156-9.644,3.468c-2.757,2.279-4.484,5.164-5.18,8.646c-0.254,1.364-0.38,2.646-0.38,3.851v20.859h-10.643
		v-20.956c0-1.647,0.063-3.009,0.19-4.085c0.823-6.398,3.659-11.751,8.505-16.061c4.878-4.339,10.594-6.509,17.151-6.509
		C319.195,526.783,324.803,528.874,329.648,533.054z"/>
	<path fill="#968575" d="M361.615,518.959v56.052h-10.921v-56.052H361.615z"/>
	<path fill="#968575" d="M382.432,513.963c1.168,1.138,1.754,2.534,1.754,4.192c0,1.626-0.586,3.006-1.754,4.144
		c-1.137,1.169-2.535,1.755-4.193,1.755c-1.625,0-3.005-0.586-4.145-1.755c-1.168-1.138-1.754-2.518-1.754-4.144
		c0-1.658,0.586-3.055,1.754-4.192c1.14-1.17,2.52-1.755,4.145-1.755C379.896,512.208,381.295,512.793,382.432,513.963z"/>
	<rect x="372.827" y="527.674" fill="#968575" width="10.871" height="47.337"/>
	<path fill="#968575" d="M437.79,532.966c4.808,4.14,7.705,9.328,8.692,15.567c0.221,1.369,0.334,3.676,0.334,6.923v19.056h-10.649
		v-18.96c0-2.547-0.144-4.503-0.429-5.874c-0.701-3.5-2.436-6.398-5.205-8.689c-2.802-2.324-6.016-3.485-9.646-3.485
		c-3.661,0-6.894,1.161-9.694,3.485c-2.77,2.291-4.504,5.189-5.205,8.689c-0.255,1.371-0.383,2.66-0.383,3.87v20.964H394.91v-21.061
		c0-1.656,0.064-3.024,0.191-4.106c0.828-6.43,3.676-11.81,8.549-16.141c4.9-4.36,10.648-6.541,17.237-6.541
		C427.287,526.664,432.922,528.764,437.79,532.966z"/>
	<path fill="#968575" d="M506.364,561.81c-1.407,3.034-3.451,5.734-6.132,8.098c-4.723,4.201-10.242,6.302-16.559,6.302
		c-6.901,0-12.804-2.454-17.709-7.359c-4.877-4.877-7.314-10.765-7.314-17.663v-0.185h10.348v0.185
		c0,4.048,1.428,7.514,4.279,10.396c2.883,2.851,6.348,4.277,10.396,4.277c3.465,0,6.532-1.088,9.2-3.265
		c1.682-1.354,2.979-2.938,3.894-4.755L506.364,561.81z M458.974,547.139c0.981-5.98,3.786-10.964,8.416-14.95
		c4.661-4.017,10.089-6.024,16.284-6.024c6.162,0,11.59,2.008,16.283,6.024c4.63,3.986,7.422,8.97,8.371,14.95H458.974z
		 M496.321,543.78c-2.851-4.844-7.067-7.267-12.647-7.267c-5.611,0-9.844,2.423-12.695,7.267H496.321z"/>
	<path fill="#968575" d="M507.962,545.28c0,0,1.364,3.685,0.366,9.301H458.74c0,0-0.73-3.959,0.748-9.866L507.962,545.28z"/>
	<polygon fill="#962D3D" points="98.386,575.013 95.567,575.013 95.567,556.513 98.386,554.764 	"/>
	<rect x="111.578" y="549.813" fill="#962D3D" width="3.045" height="25.2"/>
	<path fill="#962D3D" d="M111.578,550.109c0,0,0.584-13.615,12.027-20.13c0,0,12.278-7.35,24.64-0.918
		c0,0,10.086,5.119,12.524,15.684l-2.438,0.813c0,0-4.281-12.467-14.931-14.973c0,0-16.413-4.573-25.058,8.332
		c0,0-2.645,2.841-3.719,11.684L111.578,550.109z"/>
</g>
</svg>
